<svg xmlns="http://www.w3.org/2000/svg" width="48" height="47.973" viewBox="0 0 48 47.973">
  <g id="iteration" transform="translate(-1 -1.035)">
    <path id="Path_717" data-name="Path 717" d="M11.68,7.035a4.645,4.645,0,1,0,4.645,4.645A4.65,4.65,0,0,0,11.68,7.035Zm0,7.742a3.1,3.1,0,1,1,3.1-3.1A3.1,3.1,0,0,1,11.68,14.777Z" transform="translate(-1.363 -1.355)" fill="#122035"/>
    <path id="Path_718" data-name="Path 718" d="M55.13,48.388l-1.095-1.095-5.646,5.646-1-1-1.095,1.095,2.1,2.1Z" transform="translate(-10.227 -10.445)" fill="#122035"/>
    <path id="Path_719" data-name="Path 719" d="M35,12h1.548v1.548H35Z" transform="translate(-7.677 -2.476)" fill="#122035"/>
    <path id="Path_720" data-name="Path 720" d="M47,12h1.548v1.548H47Z" transform="translate(-10.387 -2.476)" fill="#122035"/>
    <path id="Path_721" data-name="Path 721" d="M43,12h1.548v1.548H43Z" transform="translate(-9.484 -2.476)" fill="#122035"/>
    <path id="Path_722" data-name="Path 722" d="M39,12h1.548v1.548H39Z" transform="translate(-8.581 -2.476)" fill="#122035"/>
    <path id="Path_723" data-name="Path 723" d="M18.806,28.879H31.194a2.325,2.325,0,0,0,2.323-2.323v-.774H43.581A5.426,5.426,0,0,0,49,20.363V14.943a5.426,5.426,0,0,0-5.419-5.419H41.258V8.75a2.325,2.325,0,0,0-2.323-2.323H26.548A2.325,2.325,0,0,0,24.226,8.75v.774H19.608V8.186l-2.032-.555c-.067-.178-.141-.355-.221-.53L18.4,5.269,15.374,2.244,13.543,3.289c-.176-.081-.352-.155-.53-.221l-.556-2.032H8.178L7.622,3.067q-.267.1-.53.221L5.261,2.244,2.236,5.269,3.281,7.1c-.081.175-.155.352-.221.53l-2.032.555v4.278l2.032.556c.067.178.141.355.221.53L2.235,15.382,5.26,18.407l1.832-1.045c.175.081.351.155.53.221l.556,2.032h4.279l.556-2.032c.177-.067.355-.141.53-.221l1.831,1.044L18.4,15.382,17.353,13.55c.081-.175.155-.352.221-.53l2.032-.556V11.072h4.619v.774a2.325,2.325,0,0,0,2.323,2.323H38.935a2.325,2.325,0,0,0,2.323-2.323v-.774h2.323a3.875,3.875,0,0,1,3.871,3.871v5.419a3.875,3.875,0,0,1-3.871,3.871H33.516V23.46a2.325,2.325,0,0,0-2.323-2.323H18.806a2.325,2.325,0,0,0-2.323,2.323v.774H6.419A5.426,5.426,0,0,0,1,29.653v6.194a5.426,5.426,0,0,0,5.419,5.419H8.742v.774a2.325,2.325,0,0,0,2.323,2.323H23.452a2.325,2.325,0,0,0,2.323-2.323v-.774h6.233a8.516,8.516,0,1,0,0-1.548H25.774v-.774a2.325,2.325,0,0,0-2.323-2.323H11.065a2.325,2.325,0,0,0-2.323,2.323v.774H6.419a3.875,3.875,0,0,1-3.871-3.871V29.653a3.875,3.875,0,0,1,3.871-3.871H16.484v.774A2.325,2.325,0,0,0,18.806,28.879Zm-.747-17.6-1.7.465-.125.406a6.233,6.233,0,0,1-.443,1.061l-.2.376.875,1.532-1.353,1.354L13.583,15.6l-.375.2a6.116,6.116,0,0,1-1.061.442l-.406.125-.465,1.7H9.361l-.465-1.7-.406-.125A6.156,6.156,0,0,1,7.43,15.8l-.376-.2-1.532.874L4.166,15.123l.875-1.532-.2-.376A6.171,6.171,0,0,1,4.4,12.154l-.125-.406-1.7-.465V9.368l1.7-.464L4.4,8.5a6.134,6.134,0,0,1,.442-1.06l.2-.377L4.166,5.528,5.52,4.174l1.532.874.376-.2a6.2,6.2,0,0,1,1.061-.443l.406-.125.465-1.7h1.915l.465,1.7.406.125a6.16,6.16,0,0,1,1.061.443l.375.2,1.533-.874,1.353,1.354-.875,1.532.2.376a6.074,6.074,0,0,1,.442,1.06l.125.406,1.7.464v1.916Zm21.65.564a.775.775,0,0,1-.774.774H26.548a.775.775,0,0,1-.774-.774V8.75a.775.775,0,0,1,.774-.774H38.935a.775.775,0,0,1,.774.774Zm.774,21.677a6.968,6.968,0,1,1-6.968,6.968A6.975,6.975,0,0,1,40.484,33.524ZM10.29,38.943a.774.774,0,0,1,.774-.774H23.452a.774.774,0,0,1,.774.774v3.1a.774.774,0,0,1-.774.774H11.065a.774.774,0,0,1-.774-.774ZM18.032,23.46a.775.775,0,0,1,.774-.774H31.194a.775.775,0,0,1,.774.774v3.1a.774.774,0,0,1-.774.774H18.806a.774.774,0,0,1-.774-.774Z" fill="#122035"/>
    <path id="Path_724" data-name="Path 724" d="M33,31h1.548v1.548H33Z" transform="translate(-7.226 -6.766)" fill="#122035"/>
    <path id="Path_725" data-name="Path 725" d="M29,31h1.548v1.548H29Z" transform="translate(-6.323 -6.766)" fill="#122035"/>
    <path id="Path_726" data-name="Path 726" d="M25,31h1.548v1.548H25Z" transform="translate(-5.419 -6.766)" fill="#122035"/>
    <path id="Path_727" data-name="Path 727" d="M37,31h1.548v1.548H37Z" transform="translate(-8.129 -6.766)" fill="#122035"/>
    <path id="Path_728" data-name="Path 728" d="M19,51h1.548v1.548H19Z" transform="translate(-4.065 -11.282)" fill="#122035"/>
    <path id="Path_729" data-name="Path 729" d="M27,51h1.548v1.548H27Z" transform="translate(-5.871 -11.282)" fill="#122035"/>
    <path id="Path_730" data-name="Path 730" d="M23,51h1.548v1.548H23Z" transform="translate(-4.968 -11.282)" fill="#122035"/>
    <path id="Path_731" data-name="Path 731" d="M15,51h1.548v1.548H15Z" transform="translate(-3.161 -11.282)" fill="#122035"/>
  </g>
</svg>
