<svg xmlns="http://www.w3.org/2000/svg" width="66.225" height="66.228" viewBox="0 0 66.225 66.228">
  <g id="avatar_2_" data-name="avatar (2)" transform="translate(-0.012)">
    <path id="Path_732" data-name="Path 732" d="M314.219,153.1a1.1,1.1,0,1,1-1.1-1.1A1.1,1.1,0,0,1,314.219,153.1Zm0,0" transform="translate(-268.954 -131.029)" fill="#122035"/>
    <path id="Path_733" data-name="Path 733" d="M234.219,153.1a1.1,1.1,0,1,1-1.1-1.1A1.1,1.1,0,0,1,234.219,153.1Zm0,0" transform="translate(-199.992 -131.029)" fill="#122035"/>
    <path id="Path_734" data-name="Path 734" d="M401.116,424a1.1,1.1,0,0,0-1.1,1.1v5.519a1.1,1.1,0,0,0,2.207,0V425.1A1.1,1.1,0,0,0,401.116,424Zm0,0" transform="translate(-344.813 -365.502)" fill="#122035"/>
    <path id="Path_735" data-name="Path 735" d="M180.436,37.527H169.4V35.552a12.142,12.142,0,0,0,5.519-9.062h1.1a3.311,3.311,0,0,0,3.311-3.311V20.971a3.311,3.311,0,0,0-1.556-2.792,5.518,5.518,0,0,0,1.556-3.83V12.141A12.141,12.141,0,0,0,167.191,0H148.427a2.208,2.208,0,0,0-2.207,2.207V14.349a5.521,5.521,0,0,0,1.556,3.83,3.311,3.311,0,0,0-1.556,2.792v2.207a3.311,3.311,0,0,0,3.311,3.311h1.159a12.14,12.14,0,0,0,5.463,9.062v1.976H145.116a1.1,1.1,0,0,0,0,2.207h7.9l-1.281,10.9a1.106,1.106,0,0,0,1.556,1.137L157.257,50a3.313,3.313,0,0,0,2.1,2.749l-.993,12.285a1.107,1.107,0,0,0,2.207.177l1.015-12.23h2.384l1.015,12.23a1.1,1.1,0,0,0,1.1,1.015h.088a1.1,1.1,0,0,0,1.015-1.192l-1.026-12.285A3.311,3.311,0,0,0,168.294,50l4,1.777A1.083,1.083,0,0,0,173.8,50.64l-.905-7.726a1.1,1.1,0,0,0-2.185.265l.674,5.795-6.921-3.079,4.415-6.159h11.556a7.726,7.726,0,0,1,7.726,7.726v17.66a1.1,1.1,0,1,0,2.207,0V47.461a9.933,9.933,0,0,0-9.934-9.934Zm-3.311-14.349a1.1,1.1,0,0,1-1.1,1.1h-1.1V19.867h1.1a1.1,1.1,0,0,1,1.1,1.1Zm-28.7,0V20.971a1.1,1.1,0,0,1,1.1-1.1h1.1v4.415h-1.1A1.1,1.1,0,0,1,148.427,23.179Zm4.415,2.207V13.355l3.2.331a1.109,1.109,0,1,0,.221-2.207l-4.415-.441a1.116,1.116,0,0,0-1.214,1.1v5.32a3.311,3.311,0,0,1-2.207-3.112V2.207h18.764a9.933,9.933,0,0,1,9.934,9.934v2.207a3.31,3.31,0,0,1-2.207,3.112V14.349a1.1,1.1,0,0,0-.993-1.1L160.679,11.92a1.1,1.1,0,1,0-.221,2.2l12.252,1.225V25.386a9.934,9.934,0,1,1-19.867,0Zm9.934,12.141a12.228,12.228,0,0,0,4.415-.839v1.589l-4.415,6.181-4.415-6.181V36.689A12.23,12.23,0,0,0,162.776,37.527Zm-7.527,2.207h1.446l4.415,6.159-6.943,3.079Zm10.839,9.934a1.1,1.1,0,0,1-1.1,1.1h-4.415a1.1,1.1,0,0,1-1.1-1.1v-.629l3.311-1.479,3.311,1.479Zm0,0" transform="translate(-124.133)" fill="#122035"/>
    <path id="Path_736" data-name="Path 736" d="M23.191,310.622H18.776v-3.311A3.311,3.311,0,0,0,15.464,304H8.842a3.311,3.311,0,0,0-3.311,3.311v3.311H1.116a1.1,1.1,0,0,0-1.1,1.1v8.83a1.1,1.1,0,1,0,2.207,0v-1.1H8.842v1.1a1.1,1.1,0,0,0,1.1,1.1h4.415a1.1,1.1,0,0,0,1.1-1.1v-4.415a1.1,1.1,0,0,0-1.1-1.1H9.946a1.1,1.1,0,0,0-1.1,1.1v1.1H2.219V312.83H22.087v4.415H18.776a1.1,1.1,0,1,0,0,2.207h3.311v6.622H2.219v-1.1a1.1,1.1,0,0,0-2.207,0v2.208a1.1,1.1,0,0,0,1.1,1.1H23.191a1.1,1.1,0,0,0,1.1-1.1V311.726A1.1,1.1,0,0,0,23.191,310.622Zm-12.141,6.622h2.207v2.207H11.049Zm-3.311-6.622v-3.311a1.1,1.1,0,0,1,1.1-1.1h6.622a1.1,1.1,0,0,1,1.1,1.1v3.311Zm0,0" transform="translate(0 -262.058)" fill="#122035"/>
    <path id="Path_737" data-name="Path 737" d="M1.115,152.556a1.1,1.1,0,0,0,1.1-1.1V138.207H4.427v13.245a1.1,1.1,0,1,0,2.207,0V137.1a1.1,1.1,0,0,0-1.1-1.1H1.115a1.1,1.1,0,0,0-1.1,1.1v14.349a1.1,1.1,0,0,0,1.1,1.1Zm0,0" transform="translate(0 -117.236)" fill="#122035"/>
    <path id="Path_738" data-name="Path 738" d="M65.115,187.037a1.1,1.1,0,0,0,1.1-1.1v-7.726h2.207v7.726a1.1,1.1,0,0,0,2.207,0V177.1a1.1,1.1,0,0,0-1.1-1.1H65.115a1.1,1.1,0,0,0-1.1,1.1v8.83A1.1,1.1,0,0,0,65.115,187.037Zm0,0" transform="translate(-55.17 -151.718)" fill="#122035"/>
    <path id="Path_739" data-name="Path 739" d="M129.116,214.622a1.1,1.1,0,0,0,1.1-1.1v-3.311h2.207v3.311a1.1,1.1,0,1,0,2.208,0V209.1a1.1,1.1,0,0,0-1.1-1.1h-4.415a1.1,1.1,0,0,0-1.1,1.1v4.415A1.1,1.1,0,0,0,129.116,214.622Zm0,0" transform="translate(-110.34 -179.303)" fill="#122035"/>
    <path id="Path_740" data-name="Path 740" d="M67.323,43.037a1.1,1.1,0,0,1-1.1-1.1,1.1,1.1,0,1,0-2.207,0,3.311,3.311,0,0,0,2.207,3.112v1.3a1.1,1.1,0,0,0,2.207,0v-1.3a3.311,3.311,0,0,0-1.1-6.424,1.1,1.1,0,1,1,1.1-1.1,1.1,1.1,0,1,0,2.207,0,3.31,3.31,0,0,0-2.207-3.112V33.1a1.1,1.1,0,0,0-2.207,0v1.3a3.311,3.311,0,0,0,1.1,6.424,1.1,1.1,0,1,1,0,2.207Zm0,0" transform="translate(-55.17 -27.585)" fill="#122035"/>
  </g>
</svg>
