<svg xmlns="http://www.w3.org/2000/svg" width="43.417" height="49.999" viewBox="0 0 43.417 49.999">
  <g id="increase" transform="translate(-33.7)">
    <path id="Path_750" data-name="Path 750" d="M134.4,26.7a13.35,13.35,0,1,0-13.35-13.35A13.365,13.365,0,0,0,134.4,26.7Zm0-25.232A11.882,11.882,0,1,1,122.517,13.35,11.9,11.9,0,0,1,134.4,1.468Z" transform="translate(-78.819)" fill="#122035"/>
    <path id="Path_751" data-name="Path 751" d="M168.544,57.15a9.655,9.655,0,1,0-6.485-16.808.734.734,0,1,0,.986,1.087,8.169,8.169,0,1,1-1.7,2.164.734.734,0,1,0-1.29-.7,9.658,9.658,0,0,0,8.489,14.257Z" transform="translate(-112.964 -34.145)" fill="#122035"/>
    <path id="Path_752" data-name="Path 752" d="M227.431,82.777a1.575,1.575,0,0,1-1.528-.927.735.735,0,0,0-1.424.361h0l0,.014a.727.727,0,0,0,.033.1,2.932,2.932,0,0,0,2.282,1.846v.976a.734.734,0,1,0,1.468,0V84.2a2.807,2.807,0,0,0,1.469-.707,2.907,2.907,0,0,0,.877-2.089c0-.744-.292-2.505-2.993-2.8a1.609,1.609,0,0,1-1.135-.506,1.024,1.024,0,0,1-.213-.619,1.2,1.2,0,0,1,1.261-1.261,1.3,1.3,0,0,1,1.19.623.735.735,0,1,0,1.336-.609h0a2.7,2.7,0,0,0-1.792-1.4v-.985a.734.734,0,1,0-1.468,0v.982a2.676,2.676,0,0,0-1.995,2.646,2.647,2.647,0,0,0,2.655,2.584c1.686.186,1.686,1.058,1.686,1.345a1.444,1.444,0,0,1-.415,1.02,1.681,1.681,0,0,1-1.3.358Z" transform="translate(-172.131 -65.97)" fill="#122035"/>
    <path id="Path_753" data-name="Path 753" d="M72.455,345.859a.734.734,0,0,0-1.069,0l-4.985,5.3a.734.734,0,0,0,.535,1.237h1.441v2.665a.734.734,0,1,0,1.468,0v-3.4a.734.734,0,0,0-.734-.734h-.477l3.287-3.495,3.287,3.495h-.477a.734.734,0,0,0-.734.734v8.746H69.844V358a.734.734,0,1,0-1.468,0v3.146a.734.734,0,0,0,.734.734h5.62a.734.734,0,0,0,.734-.734V352.4h1.441a.734.734,0,0,0,.535-1.237Z" transform="translate(-29.328 -311.876)" fill="#122035"/>
    <path id="Path_754" data-name="Path 754" d="M205.447,294.159a.734.734,0,0,0-1.069,0l-4.985,5.3a.734.734,0,0,0,.535,1.237h1.441V314.49a.734.734,0,0,0,.734.734h5.62a.734.734,0,0,0,.734-.734V300.7H209.9a.734.734,0,0,0,.534-1.237Zm2.276,5.069a.734.734,0,0,0-.734.734v13.795h-4.153V299.961a.734.734,0,0,0-.734-.734h-.477l3.287-3.495,3.287,3.495h-.477Z" transform="translate(-149.333 -265.225)" fill="#122035"/>
    <path id="Path_755" data-name="Path 755" d="M338.438,246.325a.734.734,0,0,0-1.069,0l-4.985,5.3a.734.734,0,0,0,.534,1.237h1.441v4.478a.734.734,0,0,0,1.468,0v-5.212a.734.734,0,0,0-.734-.734h-.477L337.9,247.9l3.287,3.495h-.477a.734.734,0,0,0-.734.734v18.466h-4.153V260.275a.734.734,0,0,0-1.468,0v11.052a.734.734,0,0,0,.734.734h5.621a.734.734,0,0,0,.734-.734V252.861h1.441a.734.734,0,0,0,.534-1.237Z" transform="translate(-269.336 -222.062)" fill="#122035"/>
    <path id="Path_756" data-name="Path 756" d="M39.472,132.615a.734.734,0,0,0-.734-.734h-4.3a.734.734,0,0,0,0,1.468h4.3A.734.734,0,0,0,39.472,132.615Z" transform="translate(0 -119.002)" fill="#122035"/>
    <path id="Path_757" data-name="Path 757" d="M76.557,197.9l-1.531.6a.734.734,0,1,0,.535,1.366l1.531-.6a.734.734,0,1,0-.535-1.366Z" transform="translate(-36.87 -178.529)" fill="#122035"/>
    <path id="Path_758" data-name="Path 758" d="M75.027,61.183l1.531.6a.734.734,0,1,0,.535-1.366l-1.531-.6a.734.734,0,1,0-.535,1.366Z" transform="translate(-36.87 -53.93)" fill="#122035"/>
    <path id="Path_759" data-name="Path 759" d="M424.233,131.881h-4.3a.734.734,0,0,0,0,1.468h4.3a.734.734,0,0,0,0-1.468Z" transform="translate(-347.85 -119.002)" fill="#122035"/>
    <path id="Path_760" data-name="Path 760" d="M407.2,199.269l1.531.6a.734.734,0,1,0,.536-1.366l-1.531-.6a.734.734,0,0,0-.536,1.366Z" transform="translate(-336.603 -178.531)" fill="#122035"/>
    <path id="Path_761" data-name="Path 761" d="M407.465,61.834a.732.732,0,0,0,.268-.051l1.531-.6a.734.734,0,0,0-.536-1.367l-1.531.6a.734.734,0,0,0,.268,1.417Z" transform="translate(-336.603 -53.93)" fill="#122035"/>
  </g>
</svg>
