<svg xmlns="http://www.w3.org/2000/svg" width="67.208" height="71.843" viewBox="0 0 67.208 71.843">
  <g id="workers" transform="translate(-3 -1)">
    <path id="Path_712" data-name="Path 712" d="M37.763,45.033h-.957a16.284,16.284,0,0,0,6.822-8.111h.509a5.2,5.2,0,0,0,.579-10.37v-.059h2.318a1.158,1.158,0,0,0,1.159-1.159V20.7a1.158,1.158,0,0,0-1.159-1.159H45.821A17.47,17.47,0,0,0,32.919,3.9l.2-1.6A1.157,1.157,0,0,0,31.969,1H25.016a1.157,1.157,0,0,0-1.149,1.3l.2,1.6a17.45,17.45,0,0,0-12.9,15.637H9.953A1.158,1.158,0,0,0,8.794,20.7v4.635a1.158,1.158,0,0,0,1.159,1.159H12.27v.059a5.2,5.2,0,0,0,.579,10.37h.509a16.284,16.284,0,0,0,6.822,8.111h-.957A16.24,16.24,0,0,0,3,61.255V71.684a1.158,1.158,0,0,0,1.159,1.159H52.826a1.158,1.158,0,0,0,1.159-1.159V61.255A16.24,16.24,0,0,0,37.763,45.033ZM40.08,47.56V57.779H37.763V47.35A13.888,13.888,0,0,1,40.08,47.56Zm4.635,22.965H40.08V63.573a1.158,1.158,0,0,0-1.159-1.159H18.064a1.158,1.158,0,0,0-1.159,1.159v6.953H12.27V60.1H44.715Zm-6.953,0H19.223V64.731h18.54Zm9.27-38.818a2.892,2.892,0,0,1-2.7,2.877,16.268,16.268,0,0,0,.379-3.457V28.869A2.9,2.9,0,0,1,47.033,31.707ZM30.656,3.318l-.869,6.953H27.2l-.869-6.953Zm-6.3,2.91.669,5.345a1.158,1.158,0,0,0,1.149,1.015H30.81a1.158,1.158,0,0,0,1.149-1.015l.669-5.345A15.143,15.143,0,0,1,43.5,19.54H13.482A15.127,15.127,0,0,1,24.357,6.227ZM11.111,21.858H45.874v2.318H11.111ZM9.953,31.707a2.9,2.9,0,0,1,2.318-2.838v2.258a16.268,16.268,0,0,0,.379,3.457A2.892,2.892,0,0,1,9.953,31.707Zm4.635-.579V26.493H42.4v4.635a13.905,13.905,0,0,1-27.81,0ZM35.445,47.35V57.779H21.54V47.35ZM19.223,57.779H16.905V47.56a13.888,13.888,0,0,1,2.318-.21ZM5.318,61.255a13.917,13.917,0,0,1,9.27-13.094v9.618H11.111a1.158,1.158,0,0,0-1.159,1.159V70.525H5.318Zm46.35,9.27H47.033V58.938a1.158,1.158,0,0,0-1.159-1.159H42.4V48.161a13.917,13.917,0,0,1,9.27,13.094Z" transform="translate(0 0)" fill="#122035"/>
    <path id="Path_713" data-name="Path 713" d="M25.794,35.476A3.481,3.481,0,0,1,22.318,32H20a5.794,5.794,0,1,0,11.588,0H29.27A3.481,3.481,0,0,1,25.794,35.476Z" transform="translate(2.699 4.921)" fill="#122035"/>
    <path id="Path_714" data-name="Path 714" d="M58.588,42.4V27.726a8.1,8.1,0,0,0-.772-14.963,1.159,1.159,0,0,0-1.546,1.093v6.068l-1.159,1.159-1.159-1.159V13.856a1.159,1.159,0,0,0-1.546-1.092,8.1,8.1,0,0,0-.772,14.963V42.4a8.1,8.1,0,0,0,.772,14.963,1.159,1.159,0,0,0,1.546-1.093V50.2l1.159-1.159L56.27,50.2v6.068a1.161,1.161,0,0,0,1.159,1.159,1.171,1.171,0,0,0,.387-.066A8.1,8.1,0,0,0,58.588,42.4Zm0,11.949V49.725a1.156,1.156,0,0,0-.34-.819l-2.318-2.318a1.158,1.158,0,0,0-1.638,0l-2.318,2.318a1.153,1.153,0,0,0-.34.818v4.627a5.781,5.781,0,0,1,1.546-10.082,1.16,1.16,0,0,0,.772-1.093V26.953a1.16,1.16,0,0,0-.772-1.093,5.781,5.781,0,0,1-1.546-10.082v4.627a1.156,1.156,0,0,0,.34.819l2.318,2.318a1.157,1.157,0,0,0,1.638,0l2.318-2.318a1.158,1.158,0,0,0,.34-.819V15.778A5.781,5.781,0,0,1,57.042,25.86a1.16,1.16,0,0,0-.772,1.093V43.176a1.16,1.16,0,0,0,.772,1.093,5.782,5.782,0,0,1,1.546,10.083Z" transform="translate(6.985 1.857)" fill="#122035"/>
  </g>
</svg>
