<svg id="architect_2_" data-name="architect (2)" xmlns="http://www.w3.org/2000/svg" width="48.201" height="48.06" viewBox="0 0 48.201 48.06">
  <g id="Group_9547" data-name="Group 9547" transform="translate(0.775 0.775)">
    <g id="Group_9527" data-name="Group 9527" transform="translate(10.077 43.409)">
      <path id="Path_680" data-name="Path 680" d="M16.55,58H21.2v3.1H15V58Z" transform="translate(-15 -58)" fill="#e6e9ed"/>
    </g>
    <g id="Group_9529" data-name="Group 9529" transform="translate(13.178 22.48)">
      <path id="Path_682" data-name="Path 682" d="M22.1,31v8.527L19,35.651Z" transform="translate(-19 -31)" fill="#ccd1d9"/>
    </g>
    <g id="Group_9530" data-name="Group 9530" transform="translate(10.077 22.48)">
      <path id="Path_683" data-name="Path 683" d="M15,31l3.1,4.651L15,39.527Z" transform="translate(-15 -31)" fill="#ccd1d9"/>
    </g>
    <g id="Group_9534" data-name="Group 9534" transform="translate(24.805 23.255)">
      <path id="Path_687" data-name="Path 687" d="M37.1,32h6.2V44.4H34V32Z" transform="translate(-34 -32)" fill="#e6e9ed"/>
    </g>
  </g>
  <g id="Group_9548" data-name="Group 9548">
    <path id="Path_700" data-name="Path 700" d="M46.329,36.658,49,29.969l-1.439-.576L44.66,36.658h-.25v-9.3h-1.55v-12.4h-3.1v-3.1h-1.55v3.1h-1.55V10.3h-1.55v4.651h-1.55v-3.1h-1.55v3.1h-3.1v9.3h-3.1v3.976A13.773,13.773,0,0,0,18.654,23.6L18.3,22.55a3.879,3.879,0,0,0,2.523-2.17h.329a3.1,3.1,0,0,0,3.1-3.1V13.4a1.552,1.552,0,0,0,1.55-1.55V10.3a1.552,1.552,0,0,0-1.55-1.55H24.12a9.3,9.3,0,0,0-18.334,0H5.651A1.552,1.552,0,0,0,4.1,10.3v1.55a1.552,1.552,0,0,0,1.55,1.55v3.876a3.1,3.1,0,0,0,3.1,3.1H9.08A3.879,3.879,0,0,0,11.6,22.55L11.252,23.6A13.711,13.711,0,0,0,1,36.923v.51a8.531,8.531,0,0,0,4.651,7.586V49.06H28.906v-6.2h2.4a3.876,3.876,0,0,0,7.6,0H42.8a6.322,6.322,0,0,0,6.255-5.3l.15-.9Zm-9.672,0V28.906h6.2v7.752ZM30.456,16.5H41.309V27.356H36.658v-3.1h-6.2Zm4.651,9.3V36.658H27.356V25.805Zm-9.3,5.175v5.677h-.25l-2.906-7.265-1.439.576,2.676,6.689h-2.87l.15.9a6.326,6.326,0,0,0,1.539,3.2V47.51H18.829V45.96a2.325,2.325,0,1,0,0-4.651V25.284a12.218,12.218,0,0,1,6.976,5.7ZM16.72,22.7,17.2,24.14l-2.245,3.368L12.707,24.14l.479-1.436Zm.559,7.867-1.366-1.708,1.366-2.049Zm-4.651,0V26.815l1.366,2.049Zm0,2.481,2.325-2.907,2.325,2.907v6.842a2.318,2.318,0,0,0-.775-.136H15.6a2.311,2.311,0,0,0-1.645.681l-.8.8-.528-.118Zm1.55,9.352.869-.869a.772.772,0,0,1,.549-.227H16.5a.776.776,0,0,1,.775.775v.775h1.55a.775.775,0,0,1,0,1.55H14.178Zm3.1,3.555v1.55H12.627V45.96Zm3.876-27.131v-3.1a1.55,1.55,0,0,1,0,3.1Zm1.55-4.22a3.069,3.069,0,0,0-1.55-.431V13.4H22.7Zm-.158-5.857H17.278V2.905A7.685,7.685,0,0,1,22.546,8.752ZM15.728,2.589V8.752h-1.55V2.589c.255-.025.513-.039.775-.039S15.473,2.564,15.728,2.589Zm-3.1.316V8.752H7.359A7.685,7.685,0,0,1,12.627,2.905ZM5.65,10.3h18.6v1.55H5.651Zm3.1,3.1v.775a3.069,3.069,0,0,0-1.55.431V13.4ZM7.2,17.278a1.552,1.552,0,0,1,1.55-1.55v3.1A1.552,1.552,0,0,1,7.2,17.278Zm3.1,1.55V13.4h9.3v5.426a2.328,2.328,0,0,1-2.325,2.325H12.627A2.328,2.328,0,0,1,10.3,18.829ZM2.55,37.433v-.51a12.16,12.16,0,0,1,8.527-11.65v15.5l-.841-.187A3.854,3.854,0,0,1,7.2,36.8V33.557H5.651V36.8A5.394,5.394,0,0,0,9.9,42.1l2.728.606v1.7h-3.1A6.985,6.985,0,0,1,2.55,37.433Zm4.651,8.2a8.5,8.5,0,0,0,2.325.33h1.55v1.55H7.2ZM24.255,47.51V42.017a6.337,6.337,0,0,0,3.1.84V47.51Zm10.852-3.1a2.328,2.328,0,0,1-2.325-2.325.776.776,0,0,1,.775-.775h3.1a.776.776,0,0,1,.775.775A2.328,2.328,0,0,1,35.107,44.409Zm7.687-3.1H38.84a2.322,2.322,0,0,0-2.183-1.55h-3.1a2.322,2.322,0,0,0-2.183,1.55H27.418a4.774,4.774,0,0,1-4.484-3.1H47.277A4.77,4.77,0,0,1,42.795,41.309Z" transform="translate(-1 -1)" fill="#122035"/>
    <path id="Path_701" data-name="Path 701" d="M45,23h1.55v1.55H45Z" transform="translate(-10.893 -5.946)" fill="#122035"/>
    <path id="Path_702" data-name="Path 702" d="M41,23h1.55v1.55H41Z" transform="translate(-9.993 -5.946)" fill="#122035"/>
    <path id="Path_703" data-name="Path 703" d="M49,23h1.55v1.55H49Z" transform="translate(-11.792 -5.946)" fill="#122035"/>
    <path id="Path_704" data-name="Path 704" d="M49,27h1.55v1.55H49Z" transform="translate(-11.792 -6.846)" fill="#122035"/>
    <path id="Path_705" data-name="Path 705" d="M41,27h1.55v1.55H41Z" transform="translate(-9.993 -6.846)" fill="#122035"/>
    <path id="Path_706" data-name="Path 706" d="M45,27h1.55v1.55H45Z" transform="translate(-10.893 -6.846)" fill="#122035"/>
    <path id="Path_707" data-name="Path 707" d="M49,31h1.55v1.55H49Z" transform="translate(-11.792 -7.745)" fill="#122035"/>
    <path id="Path_708" data-name="Path 708" d="M37,35h1.55v7.752H37Z" transform="translate(-9.094 -8.644)" fill="#122035"/>
    <path id="Path_709" data-name="Path 709" d="M41,35h1.55v7.752H41Z" transform="translate(-9.993 -8.644)" fill="#122035"/>
    <path id="Path_710" data-name="Path 710" d="M49,39h3.1v1.55H49Z" transform="translate(-11.792 -9.544)" fill="#122035"/>
    <path id="Path_711" data-name="Path 711" d="M49,43h3.1v1.55H49Z" transform="translate(-11.792 -10.443)" fill="#122035"/>
  </g>
</svg>
