<svg xmlns="http://www.w3.org/2000/svg" width="49.383" height="45.651" viewBox="0 0 49.383 45.651">
  <g id="card" transform="translate(0 -19.346)">
    <path id="Path_744" data-name="Path 744" d="M46.076,29.758H40.653V26.509a2.812,2.812,0,0,0-2.823-2.794H29.607v-3.4a.964.964,0,0,0-.965-.965h-7.9a.964.964,0,0,0-.965.965v3.4H11.634a2.812,2.812,0,0,0-2.823,2.794v3.249H3.307A3.31,3.31,0,0,0,0,33.065V61.69A3.31,3.31,0,0,0,3.307,65h42.77a3.31,3.31,0,0,0,3.307-3.307V33.065A3.31,3.31,0,0,0,46.076,29.758Zm-18.4-8.483v4.791H21.735V24.68a.968.968,0,0,0-.031-.243V21.275ZM10.741,26.509a.881.881,0,0,1,.894-.865h8.141v1.387a1.06,1.06,0,0,0,1,1.037h7.923a.964.964,0,0,0,.965-.965V25.644H37.83a.881.881,0,0,1,.894.865v3.249H10.741ZM47.454,61.69a1.379,1.379,0,0,1-1.378,1.378H3.307A1.379,1.379,0,0,1,1.929,61.69V33.065a1.379,1.379,0,0,1,1.378-1.378H9.6a.972.972,0,0,0,.174.016H39.688a.963.963,0,0,0,.174-.016h6.213a1.379,1.379,0,0,1,1.378,1.378V61.69Z" fill="#122035"/>
    <path id="Path_745" data-name="Path 745" d="M74.719,193.335h-20.7a.964.964,0,0,0-.965.965V216a.964.964,0,0,0,.965.965h20.7a.964.964,0,0,0,.965-.965V194.3A.965.965,0,0,0,74.719,193.335Zm-.965,21.7H54.988V195.264H73.754Z" transform="translate(-47.941 -157.208)" fill="#122035"/>
    <path id="Path_746" data-name="Path 746" d="M112.19,253.651h9.475a.964.964,0,0,0,.965-.965V248.1a2.426,2.426,0,0,0-2.081-2.4,4.4,4.4,0,1,0-7.242,0,2.426,2.426,0,0,0-2.081,2.4v4.585A.965.965,0,0,0,112.19,253.651Zm4.737-12.936a2.482,2.482,0,1,1-2.473,2.482A2.48,2.48,0,0,1,116.927,240.715Zm-3.773,7.386a.494.494,0,0,1,.493-.493h6.56a.494.494,0,0,1,.493.493v3.621h-7.546Z" transform="translate(-100.497 -198.275)" fill="#122035"/>
    <path id="Path_747" data-name="Path 747" d="M322.159,262.607h6.655a.965.965,0,1,0,0-1.929h-6.655a.965.965,0,0,0,0,1.929Z" transform="translate(-290.215 -218.055)" fill="#122035"/>
    <path id="Path_748" data-name="Path 748" d="M332.493,305.849H322.159a.965.965,0,1,0,0,1.929h10.335a.965.965,0,0,0,0-1.929Z" transform="translate(-290.215 -258.87)" fill="#122035"/>
    <path id="Path_749" data-name="Path 749" d="M332.493,351.019H322.159a.965.965,0,1,0,0,1.929h10.335a.965.965,0,0,0,0-1.929Z" transform="translate(-290.215 -299.683)" fill="#122035"/>
  </g>
</svg>
