<svg xmlns="http://www.w3.org/2000/svg" width="71.427" height="71.219" viewBox="0 0 71.427 71.219">
  <g id="architect_2_" data-name="architect (2)" transform="translate(-1 -1)">
    <g id="Group_9547" data-name="Group 9547" transform="translate(2.149 2.149)">
      <g id="Group_9527" data-name="Group 9527" transform="translate(14.933 64.327)">
        <path id="Path_680" data-name="Path 680" d="M17.3,58H24.19v4.595H15V58Z" transform="translate(-15 -58)" fill="#e6e9ed"/>
      </g>
      <g id="Group_9529" data-name="Group 9529" transform="translate(19.528 33.312)">
        <path id="Path_682" data-name="Path 682" d="M23.595,31V43.636L19,37.892Z" transform="translate(-19 -31)" fill="#ccd1d9"/>
      </g>
      <g id="Group_9530" data-name="Group 9530" transform="translate(14.933 33.312)">
        <path id="Path_683" data-name="Path 683" d="M15,31l4.595,6.892L15,43.636Z" transform="translate(-15 -31)" fill="#ccd1d9"/>
      </g>
      <g id="Group_9534" data-name="Group 9534" transform="translate(36.758 34.461)">
        <path id="Path_687" data-name="Path 687" d="M38.595,32h9.19V50.379H34V32Z" transform="translate(-34 -32)" fill="#e6e9ed"/>
      </g>
      <g id="Group_9541" data-name="Group 9541" transform="translate(27.569 16.082)">
        <path id="Path_694" data-name="Path 694" d="M30.595,16v6.892a3.451,3.451,0,0,0-3.446-3.446H26V16Z" transform="translate(-26 -16)" fill="#656d78"/>
      </g>
      <g id="Group_9542" data-name="Group 9542" transform="translate(6.892 16.082)">
        <path id="Path_695" data-name="Path 695" d="M11.446,19.446A3.441,3.441,0,0,0,8,22.892V16h4.595v3.446Z" transform="translate(-8 -16)" fill="#656d78"/>
      </g>
    </g>
    <g id="Group_9548" data-name="Group 9548" transform="translate(1 1)">
      <path id="Path_700" data-name="Path 700" d="M68.172,53.84l3.964-9.911L70,43.075,65.7,53.84h-.371V40.055h-2.3V21.676H58.434V17.082h-2.3v4.595h-2.3V14.784h-2.3v6.892h-2.3V17.082h-2.3v4.595H42.353V35.461H37.758v5.892a20.409,20.409,0,0,0-10.6-6.855l-.522-1.563a5.749,5.749,0,0,0,3.739-3.216h.487a4.6,4.6,0,0,0,4.595-4.595V19.379a2.3,2.3,0,0,0,2.3-2.3v-2.3a2.3,2.3,0,0,0-2.3-2.3h-.2a13.776,13.776,0,0,0-27.169,0h-.2a2.3,2.3,0,0,0-2.3,2.3v2.3a2.3,2.3,0,0,0,2.3,2.3v5.743a4.6,4.6,0,0,0,4.595,4.595h.487a5.748,5.748,0,0,0,3.739,3.216L16.191,34.5A20.318,20.318,0,0,0,1,54.233v.756A12.641,12.641,0,0,0,7.892,66.229v5.989H42.353v-9.19h3.562a5.743,5.743,0,0,0,11.255,0h5.765A9.368,9.368,0,0,0,72.2,55.178l.223-1.338Zm-14.332,0V42.353h9.19V53.84ZM44.65,23.974H60.732V40.055H53.84V35.461H44.65Zm6.892,13.784V53.84H40.055V37.758ZM37.758,45.427V53.84h-.371L33.081,43.074l-2.133.853,3.965,9.912H30.659l.223,1.338a9.375,9.375,0,0,0,2.281,4.738V69.921H27.42v-2.3a3.446,3.446,0,0,0,0-6.892V36.985a18.106,18.106,0,0,1,10.338,8.442ZM24.294,33.163,25,35.291l-3.327,4.991-3.328-4.991.71-2.127Zm.828,11.658L23.1,42.291l2.024-3.036Zm-6.892,0V39.255l2.024,3.036Zm0,3.677,3.446-4.308L25.122,48.5V58.637a3.435,3.435,0,0,0-1.149-.2H22.629a3.425,3.425,0,0,0-2.438,1.01l-1.179,1.179-.782-.175Zm2.3,13.858,1.288-1.288a1.144,1.144,0,0,1,.813-.337h1.345a1.151,1.151,0,0,1,1.149,1.149v1.149h2.3a1.149,1.149,0,1,1,0,2.3H20.528Zm4.595,5.268v2.3H18.23v-2.3Zm5.743-40.2V22.825a2.3,2.3,0,0,1,0,4.595Zm2.3-6.253a4.547,4.547,0,0,0-2.3-.639V19.379h2.3Zm-.234-8.679H25.122V3.823A11.388,11.388,0,0,1,32.929,12.487Zm-10.1-9.132v9.132h-2.3V3.355c.378-.037.76-.057,1.149-.057S22.447,3.318,22.825,3.355Zm-4.595.469v8.663H10.424A11.388,11.388,0,0,1,18.23,3.823ZM7.891,14.784h27.57v2.3H7.892Zm4.6,4.595v1.149a4.547,4.547,0,0,0-2.3.639V19.379Zm-2.3,5.743a2.3,2.3,0,0,1,2.3-2.3V27.42A2.3,2.3,0,0,1,10.19,25.122Zm4.595,2.3V19.379H28.569V27.42a3.45,3.45,0,0,1-3.446,3.446H18.23A3.45,3.45,0,0,1,14.784,27.42ZM3.3,54.988v-.756A18.02,18.02,0,0,1,15.933,36.969v22.97l-1.246-.277a5.711,5.711,0,0,1-4.5-5.608v-4.81h-2.3v4.81a7.993,7.993,0,0,0,6.3,7.849l4.042.9v2.525H13.636A10.351,10.351,0,0,1,3.3,54.988ZM10.19,67.135a12.6,12.6,0,0,0,3.446.489h2.3v2.3H10.19Zm25.271,2.787v-8.14a9.391,9.391,0,0,0,4.595,1.244v6.9Zm16.082-4.595A3.45,3.45,0,0,1,48.1,61.881a1.151,1.151,0,0,1,1.149-1.149H53.84a1.151,1.151,0,0,1,1.149,1.149A3.45,3.45,0,0,1,51.542,65.327Zm11.392-4.595H57.073a3.441,3.441,0,0,0-3.235-2.3H49.244a3.441,3.441,0,0,0-3.235,2.3H40.148A7.075,7.075,0,0,1,33.5,56.137H69.577A7.068,7.068,0,0,1,62.934,60.732Z" transform="translate(-1 -1)" fill="#122035"/>
      <path id="Path_701" data-name="Path 701" d="M45,23h2.3v2.3H45Z" transform="translate(5.542 2.271)" fill="#122035"/>
      <path id="Path_702" data-name="Path 702" d="M41,23h2.3v2.3H41Z" transform="translate(4.948 2.271)" fill="#122035"/>
      <path id="Path_703" data-name="Path 703" d="M49,23h2.3v2.3H49Z" transform="translate(6.137 2.271)" fill="#122035"/>
      <path id="Path_704" data-name="Path 704" d="M49,27h2.3v2.3H49Z" transform="translate(6.137 2.866)" fill="#122035"/>
      <path id="Path_705" data-name="Path 705" d="M41,27h2.3v2.3H41Z" transform="translate(4.948 2.866)" fill="#122035"/>
      <path id="Path_706" data-name="Path 706" d="M45,27h2.3v2.3H45Z" transform="translate(5.542 2.866)" fill="#122035"/>
      <path id="Path_707" data-name="Path 707" d="M49,31h2.3v2.3H49Z" transform="translate(6.137 3.461)" fill="#122035"/>
      <path id="Path_708" data-name="Path 708" d="M37,35h2.3V46.487H37Z" transform="translate(4.353 4.055)" fill="#122035"/>
      <path id="Path_709" data-name="Path 709" d="M41,35h2.3V46.487H41Z" transform="translate(4.948 4.055)" fill="#122035"/>
      <path id="Path_710" data-name="Path 710" d="M49,39h4.595v2.3H49Z" transform="translate(6.137 4.65)" fill="#122035"/>
      <path id="Path_711" data-name="Path 711" d="M49,43h4.595v2.3H49Z" transform="translate(6.137 5.245)" fill="#122035"/>
    </g>
  </g>
</svg>
