<svg id="user_5_" data-name="user (5)" xmlns="http://www.w3.org/2000/svg" width="48.875" height="48.875" viewBox="0 0 48.875 48.875">
  <g id="Group_9553" data-name="Group 9553">
    <path id="Path_715" data-name="Path 715" d="M39.6,25.153h2.129a3.609,3.609,0,1,0,0-1.432H39.6a15.122,15.122,0,0,0-3.94-9.495l3.834-3.834A4.58,4.58,0,1,0,38.482,9.38l-3.834,3.834a15.122,15.122,0,0,0-9.495-3.939V7.146a3.609,3.609,0,1,0-1.432,0V9.275a15.122,15.122,0,0,0-9.495,3.939L10.393,9.38A4.569,4.569,0,0,0,9.25,2.9a.716.716,0,0,0-.8,1.187,3.141,3.141,0,1,1-2.613-.417.716.716,0,0,0-.391-1.378,4.574,4.574,0,1,0,3.935,8.1l3.834,3.834a15.122,15.122,0,0,0-3.94,9.495H7.146a3.609,3.609,0,1,0,0,1.432H9.275a15.122,15.122,0,0,0,3.94,9.495L9.38,38.482a4.58,4.58,0,1,0,1.012,1.013l3.834-3.834A15.122,15.122,0,0,0,23.722,39.6v2.128a3.609,3.609,0,1,0,1.432,0V39.6a15.122,15.122,0,0,0,9.495-3.939l3.834,3.834a4.57,4.57,0,1,0,8.037,1.237.716.716,0,1,0-1.358.453,3.14,3.14,0,1,1-1.832-1.928.716.716,0,0,0,.524-1.333,4.569,4.569,0,0,0-4.359.559l-3.834-3.834A15.123,15.123,0,0,0,39.6,25.153Zm5.666-2.893a2.177,2.177,0,1,1-2.177,2.177A2.179,2.179,0,0,1,45.266,22.261ZM42.18,3.553a3.141,3.141,0,1,1-3.141,3.141A3.145,3.145,0,0,1,42.18,3.553Zm-19.92.055a2.177,2.177,0,1,1,2.177,2.177,2.179,2.179,0,0,1-2.177-2.177ZM3.609,26.614a2.177,2.177,0,1,1,2.177-2.177A2.179,2.179,0,0,1,3.609,26.614ZM24.437,10.689A13.748,13.748,0,1,1,10.689,24.438,13.764,13.764,0,0,1,24.437,10.689ZM6.695,45.322A3.141,3.141,0,1,1,9.836,42.18,3.145,3.145,0,0,1,6.695,45.322Zm19.92-.055a2.177,2.177,0,1,1-2.177-2.177A2.179,2.179,0,0,1,26.614,45.266Z" fill="#122035"/>
    <path id="Path_716" data-name="Path 716" d="M164.368,166.658H170.8a.716.716,0,0,0,0-1.432h-1.664v-1.212a.716.716,0,0,0-1.432,0v1.212h-2.618V161.7a3.145,3.145,0,0,1,3.141-3.142h8.486a3.145,3.145,0,0,1,3.141,3.142v3.526h-2.618v-1.212a.716.716,0,0,0-1.432,0v1.212h-1.663a.716.716,0,0,0,0,1.432h6.429a.716.716,0,0,0,.716-.716V161.7a4.578,4.578,0,0,0-4.572-4.573h-.532a5.537,5.537,0,1,0-7.423,0h-.532a4.578,4.578,0,0,0-4.572,4.573v4.242a.716.716,0,0,0,.716.716Zm3.994-13.637a4.105,4.105,0,1,1,4.105,4.105A4.11,4.11,0,0,1,168.362,153.021Z" transform="translate(-148.03 -133.405)" fill="#122035"/>
  </g>
</svg>
