<svg xmlns="http://www.w3.org/2000/svg" width="53.254" height="53.254" viewBox="0 0 53.254 53.254">
  <g id="engineer" transform="translate(-1 -1)">
    <path id="Path_741" data-name="Path 741" d="M44.806,28.706V26.5l.74-.277a9.492,9.492,0,0,0,6.131-8.847V13.025a1.72,1.72,0,0,0,1.718-1.718V9.589a1.72,1.72,0,0,0-1.718-1.718h-.051A7.74,7.74,0,0,0,43.947,1H37.075A7.739,7.739,0,0,0,29.4,7.871h-.051a1.72,1.72,0,0,0-1.718,1.718v1.718a1.72,1.72,0,0,0,1.718,1.718h1.718v1.458L29.785,16.4a2.623,2.623,0,0,0-.441,1.458,2.761,2.761,0,0,0,1.533,2.481l.185.092v2.046a4.3,4.3,0,0,0,4.295,4.295h2.577v1.824l-1.012.135a13.632,13.632,0,0,0-10.834,8.348H21.614V25.909h5.154V19.038H14.743v2.577H13.025V19.038H7.871V13.884h5.154V5.295H1v8.589H6.154v5.154H1v6.871H13.025V23.332h1.718v2.577H19.9V37.075H16.461V30.2H12.166A4.3,4.3,0,0,0,7.871,34.5V49.959a4.3,4.3,0,0,0,4.295,4.295H37.075V50.818h8.076a9.114,9.114,0,0,0,9.1-9.1A13.713,13.713,0,0,0,44.806,28.706ZM2.718,7.013h8.589v5.154H2.718Zm8.589,17.179H2.718V20.755h8.589Zm5.154-3.436H25.05v3.436H16.461Zm33.5-3.376a7.767,7.767,0,0,1-5.016,7.238l-.137.052V22.9l1.947-1.46a3.722,3.722,0,0,0-1.947-6.689V13.025h5.154ZM37.075,2.718h6.871a6.017,6.017,0,0,1,5.944,5.154H31.131A6.017,6.017,0,0,1,37.075,2.718Zm-7.73,6.871H51.677v1.718H29.345ZM35.357,25.05a2.58,2.58,0,0,1-2.577-2.577V19.366L31.647,18.8a1.05,1.05,0,0,1-.584-.944.913.913,0,0,1,.152-.5L32.781,15V13.025H43.088v3.436H44.52a2,2,0,0,1,1.2,3.608l-2.633,1.976v7.3a1.718,1.718,0,0,1-3.436,0V25.05ZM12.166,31.922h2.577v5.154H12.166a2.577,2.577,0,0,1,0-5.154ZM35.357,52.536H12.166a2.58,2.58,0,0,1-2.577-2.577V37.912a4.25,4.25,0,0,0,2.577.881H35.357v3.436a3.439,3.439,0,0,0-3.436,3.436v1.718a3.439,3.439,0,0,0,3.436,3.436ZM38.793,49.1H35.357a1.72,1.72,0,0,1-1.718-1.718V45.665a1.72,1.72,0,0,1,1.718-1.718h1.509a1.71,1.71,0,0,1,1.215.5l.711.711Zm6.358,0h-4.64V45.665h3.332A5.258,5.258,0,0,0,49.1,40.407V37.934H47.382v2.473a3.515,3.515,0,0,1-1.037,2.5,3.567,3.567,0,0,1-2.5,1.037H40.008l-.711-.711a3.4,3.4,0,0,0-2.221-.986V37.075H27.969a11.915,11.915,0,0,1,9.181-6.645l.938-.125a3.414,3.414,0,0,0,6.518.149,11.991,11.991,0,0,1,7.931,11.259A7.394,7.394,0,0,1,45.151,49.1Z" fill="#122035"/>
    <path id="Path_742" data-name="Path 742" d="M5,10h5.154v1.718H5Z" transform="translate(-0.564 -1.27)" fill="#122035"/>
    <path id="Path_743" data-name="Path 743" d="M49,42h3.436v1.718H49Z" transform="translate(-6.771 -5.784)" fill="#122035"/>
  </g>
</svg>
