<svg xmlns="http://www.w3.org/2000/svg" xmlns:xlink="http://www.w3.org/1999/xlink" width="32" height="32" viewBox="0 0 32 32">
  <defs>
    <clipPath id="clip-path">
      <rect id="Rectangle_1" data-name="Rectangle 1" width="32" height="32" transform="translate(0.443)" fill="#bb002b" stroke="#707070" stroke-width="1"/>
    </clipPath>
  </defs>
  <g id="estimate_date" transform="translate(-0.443)" opacity="0.8" clip-path="url(#clip-path)">
    <g id="Group_2" data-name="Group 2" transform="translate(0.009 -0.376)">
      <g id="Group_1" data-name="Group 1">
        <path id="Path_1" data-name="Path 1" d="M13.9,22.431a.742.742,0,0,0-.742-.742H10.572a.742.742,0,0,0-.742.742v2.59a.742.742,0,0,0,.742.742h2.591a.742.742,0,0,0,.742-.742v-2.59Z" transform="translate(-2.351 -4.387)" fill="#bb002b"/>
        <path id="Path_2" data-name="Path 2" d="M22.021,22.431a.742.742,0,0,0-.742-.742H18.688a.742.742,0,0,0-.742.742v2.59a.742.742,0,0,0,.742.742h2.591a.742.742,0,0,0,.742-.742Z" transform="translate(-3.993 -4.387)" fill="#bb002b"/>
        <path id="Path_3" data-name="Path 3" d="M30.137,22.431a.742.742,0,0,0-.742-.742H26.8a.742.742,0,0,0-.742.742v2.59a.742.742,0,0,0,.742.742h2.591a.742.742,0,0,0,.742-.742Z" transform="translate(-5.634 -4.387)" fill="#bb002b"/>
        <path id="Path_4" data-name="Path 4" d="M13.9,30.548a.742.742,0,0,0-.742-.742H10.572a.742.742,0,0,0-.742.742v2.59a.742.742,0,0,0,.742.742h2.591a.742.742,0,0,0,.742-.742v-2.59Z" transform="translate(-2.351 -6.029)" fill="#bb002b"/>
        <path id="Path_5" data-name="Path 5" d="M22.021,30.548a.742.742,0,0,0-.742-.742H18.688a.742.742,0,0,0-.742.742v2.59a.742.742,0,0,0,.742.742h2.591a.742.742,0,0,0,.742-.742Z" transform="translate(-3.993 -6.029)" fill="#bb002b"/>
        <path id="Path_6" data-name="Path 6" d="M30.137,30.548a.742.742,0,0,0-.742-.742H26.8a.742.742,0,0,0-.742.742v2.59a.742.742,0,0,0,.742.742h2.6a.742.742,0,0,0,.742-.742v-2.59Z" transform="translate(-5.634 -6.029)" fill="#bb002b"/>
        <path id="Path_7" data-name="Path 7" d="M29.589,4.562V8.518a3.231,3.231,0,0,1-3.239,3.229H24.307a3.248,3.248,0,0,1-3.258-3.229V4.547H11.841V8.518a3.248,3.248,0,0,1-3.258,3.229H6.54A3.231,3.231,0,0,1,3.3,8.518V4.562A2.945,2.945,0,0,0,.454,7.491V30.677a2.946,2.946,0,0,0,2.932,2.949H29.5a2.95,2.95,0,0,0,2.932-2.949V7.491a2.945,2.945,0,0,0-2.843-2.929ZM28.64,29.233A1.268,1.268,0,0,1,27.373,30.5H5.462a1.268,1.268,0,0,1-1.267-1.267V17.257a1.268,1.268,0,0,1,1.267-1.268H27.373a1.268,1.268,0,0,1,1.267,1.268Z" transform="translate(-0.454 -0.92)" fill="#bb002b"/>
        <path id="Path_8" data-name="Path 8" d="M7.792,8.706H9.813A1.11,1.11,0,0,0,10.924,7.6V1.11A1.11,1.11,0,0,0,9.813,0H7.792A1.11,1.11,0,0,0,6.681,1.11V7.6A1.11,1.11,0,0,0,7.792,8.706Z" transform="translate(-1.714)" fill="#bb002b"/>
        <path id="Path_9" data-name="Path 9" d="M30.042,8.706h2.021a1.11,1.11,0,0,0,1.11-1.11V1.11A1.11,1.11,0,0,0,32.063,0H30.042a1.11,1.11,0,0,0-1.111,1.11V7.6A1.11,1.11,0,0,0,30.042,8.706Z" transform="translate(-6.215)" fill="#bb002b"/>
      </g>
    </g>
  </g>
</svg>
