<svg xmlns="http://www.w3.org/2000/svg" xmlns:xlink="http://www.w3.org/1999/xlink" width="41" height="41" viewBox="0 0 41 41"><defs><style>.a,.c{fill:#122035;}.a{stroke:#707070;}.b{opacity:0.8;clip-path:url(#a);}</style><clipPath id="a"><rect class="a" width="41" height="41" transform="translate(-0.001)"/></clipPath></defs><g class="b" transform="translate(0.001)"><g transform="translate(-0.15 0.08)"><path class="c" d="M14.412,21.9h-.719a1.2,1.2,0,0,0,0,2.4H27.307a1.2,1.2,0,0,0,0-2.4h-.719A6.223,6.223,0,0,0,21.7,17.014V18.9a1.2,1.2,0,0,1-2.4,0V17.014A6.223,6.223,0,0,0,14.412,21.9Z" transform="translate(0 -0.08)"/><path class="c" d="M26.692,32.257a7.8,7.8,0,0,1-12.383,0,9.2,9.2,0,0,0-3.818,7.461,1.2,1.2,0,0,0,1.2,1.2H29.309a1.2,1.2,0,0,0,1.2-1.2A9.2,9.2,0,0,0,26.692,32.257Z" transform="translate(0 -0.08)"/><path class="c" d="M20.5,32.912a5.405,5.405,0,0,0,5.405-5.405v-.8H15.095v.8A5.405,5.405,0,0,0,20.5,32.912Z" transform="translate(0 -0.08)"/><path class="c" d="M21.7,17.014V16.5a1.2,1.2,0,0,0-2.4,0v.518a6.187,6.187,0,0,1,2.4,0Z" transform="translate(0 -0.08)"/><path class="c" d="M24.184,9.089H37.8a1.2,1.2,0,1,0,0-2.4h-.719A6.223,6.223,0,0,0,32.191,1.8V3.684a1.2,1.2,0,1,1-2.4,0V1.8A6.223,6.223,0,0,0,24.9,6.687h-.719a1.2,1.2,0,1,0,0,2.4Z" transform="translate(0 -0.08)"/><path class="c" d="M30.99,17.7A5.405,5.405,0,0,0,36.4,12.292v-.8H25.585v.8A5.405,5.405,0,0,0,30.99,17.7Z" transform="translate(0 -0.08)"/><path class="c" d="M37.278,16.916a7.8,7.8,0,0,1-8.892,2.737l.006.014a3.6,3.6,0,0,1-.089,6.9c0,.047,0,.094,0,.141v.8a7.773,7.773,0,0,1-.462,2.646,2.411,2.411,0,0,1,.255.16,11.625,11.625,0,0,1,2.6,2.6h9.1a1.2,1.2,0,0,0,1.2-1.2V24.1a8.8,8.8,0,0,0-3.722-7.188Z" transform="translate(0 -0.08)"/><path class="c" d="M32.191,1.8V1.281a1.2,1.2,0,1,0-2.4,0V1.8a6.187,6.187,0,0,1,2.4,0Z" transform="translate(0 -0.08)"/><path class="c" d="M3.2,9.089H16.816a1.2,1.2,0,1,0,0-2.4H16.1A6.223,6.223,0,0,0,11.211,1.8V3.684a1.2,1.2,0,0,1-2.4,0V1.8A6.223,6.223,0,0,0,3.922,6.687H3.2a1.2,1.2,0,1,0,0,2.4Z" transform="translate(0 -0.08)"/><path class="c" d="M15.415,12.292v-.8H4.6v.8a5.405,5.405,0,0,0,10.811,0Z" transform="translate(0 -0.08)"/><path class="c" d="M12.9,30.312a2.425,2.425,0,0,1,.255-.16,7.771,7.771,0,0,1-.462-2.646v-.8c0-.047,0-.094,0-.141a3.6,3.6,0,0,1-.089-6.9l.006-.014a7.8,7.8,0,0,1-8.892-2.737A8.8,8.8,0,0,0,0,24.1v7.607a1.2,1.2,0,0,0,1.2,1.2h9.1a11.624,11.624,0,0,1,2.6-2.6Z" transform="translate(0 -0.08)"/><path class="c" d="M11.211,1.8V1.281a1.2,1.2,0,0,0-2.4,0V1.8a6.187,6.187,0,0,1,2.4,0Z" transform="translate(0 -0.08)"/></g></g></svg>