<svg xmlns="http://www.w3.org/2000/svg" width="32" height="32" viewBox="0 0 32 32"><defs><style>.a{opacity:0.8;}.b{fill:#122035;}</style></defs><g class="a"><path class="b" d="M16.4,16.4H4.933A2.959,2.959,0,0,1,2,13.467V4.933A2.959,2.959,0,0,1,4.933,2h8.533A2.959,2.959,0,0,1,16.4,4.933Z" transform="translate(-2 -2)"/><path class="b" d="M35,16.4V4.933A2.959,2.959,0,0,1,37.933,2h8.533A2.959,2.959,0,0,1,49.4,4.933v8.533A2.959,2.959,0,0,1,46.467,16.4Z" transform="translate(-17.4 -2)"/><path class="b" d="M35,35H46.467A2.959,2.959,0,0,1,49.4,37.933v8.533A2.959,2.959,0,0,1,46.467,49.4H37.933A2.959,2.959,0,0,1,35,46.467Z" transform="translate(-17.4 -17.4)"/><path class="b" d="M16.4,35V46.467A2.959,2.959,0,0,1,13.467,49.4H4.933A2.959,2.959,0,0,1,2,46.467V37.933A2.959,2.959,0,0,1,4.933,35Z" transform="translate(-2 -17.4)"/></g></svg>