<svg xmlns="http://www.w3.org/2000/svg" width="36.374" height="36.297" viewBox="0 0 36.374 36.297"><defs><style>.a{opacity:0.8;}.b{fill:#122035;}</style></defs><g class="a"><path class="b" d="M7.479,202.935H0v21.918H7.479ZM4.947,222.171h-2.4V220.04h2.4Zm0-4.813h-2.4v-2.131h2.4Zm0-4.813h-2.4v-2.131h2.4Zm-2.4-4.813V205.6h2.4v2.131Z" transform="translate(0 -188.557)"/><path class="b" d="M0,135.413H7.479v2.666H0Z" transform="translate(0 -125.831)"/><path class="b" d="M406.727,135.413h7.479v2.666h-7.479Z" transform="translate(-377.832 -125.831)"/><path class="b" d="M414.206,202.935h-7.479v21.918h7.479Zm-2.548,19.236h-2.4V220.04h2.4Zm0-4.813h-2.4v-2.131h2.4Zm0-4.813h-2.4v-2.131h2.4Zm0-4.813h-2.4V205.6h2.4Z" transform="translate(-377.832 -188.557)"/><path class="b" d="M271,406.185h2.682v7.479H271Z" transform="translate(-251.748 -377.367)"/><path class="b" d="M237.011,102.773a1.349,1.349,0,1,0,1.349-1.349A1.351,1.351,0,0,0,237.011,102.773Z" transform="translate(-220.173 -94.257)"/><path class="b" d="M135.273,5.8V36.839h2.7v-9.61h11.758v9.61h2.7V5.8L143.85.542Zm4.979,18.729h-2.4V22.4h2.4Zm0-4.8h-2.4V17.6h2.4Zm4.8,4.8h-2.4V22.4h2.4Zm0-4.8h-2.4V17.6h2.4Zm2.4-2.131h2.4v2.131h-2.4Zm0,4.8h2.4v2.131h-2.4ZM147.33,9.058a3.48,3.48,0,1,1-3.48-3.48A3.484,3.484,0,0,1,147.33,9.058Z" transform="translate(-125.663 -0.542)"/><path class="b" d="M203.25,406.185h2.682v7.479H203.25Z" transform="translate(-188.811 -377.367)"/></g></svg>