<svg xmlns="http://www.w3.org/2000/svg" xmlns:xlink="http://www.w3.org/1999/xlink" width="41" height="41" viewBox="0 0 41 41">
  <defs>
    <clipPath id="clip-path">
      <rect id="Rectangle_348" data-name="Rectangle 348" width="41" height="41" fill="#3a7cec" stroke="#707070" stroke-width="1"/>
    </clipPath>
  </defs>
  <g id="Mask_Group_42" data-name="Mask Group 42" clip-path="url(#clip-path)">
    <g id="construction-and-tools" transform="translate(0 0)">
      <path id="Path_470" data-name="Path 470" d="M39.8,40.078a20.016,20.016,0,0,0-3.786-2.286l-4.8-2.216a12.947,12.947,0,0,1-2.085,3.713A11.593,11.593,0,0,1,27.436,41H41Zm0,0" transform="translate(0 0)" fill="#3a7cec"/>
      <path id="Path_471" data-name="Path 471" d="M11.872,39.29a12.947,12.947,0,0,1-2.085-3.713l-4.8,2.216A20.015,20.015,0,0,0,1.2,40.078L0,41H13.564a11.593,11.593,0,0,1-1.691-1.71Zm0,0" transform="translate(0 0)" fill="#3a7cec"/>
      <path id="Path_472" data-name="Path 472" d="M28.319,33.472V33.2a12.142,12.142,0,0,1-15.639,0v.273a1.2,1.2,0,0,1-.7,1.091S13.837,41,20.5,41s8.517-6.437,8.517-6.437a1.2,1.2,0,0,1-.7-1.091Zm0,0" transform="translate(0 0)" fill="#3a7cec"/>
      <path id="Path_473" data-name="Path 473" d="M20.5,33.648a9.782,9.782,0,0,0,9.77-9.774V19.548H10.73v4.327A9.783,9.783,0,0,0,20.5,33.648Zm0,0" transform="translate(0 0)" fill="#3a7cec"/>
      <path id="Path_474" data-name="Path 474" d="M8.2,17.145H32.8a1.2,1.2,0,0,0,0-2.4H31.794V13.5a11.3,11.3,0,0,0-4.936-9.333v5.07a1.2,1.2,0,1,1-2.4,0V3.4a1.194,1.194,0,0,1,.089-.452A11.205,11.205,0,0,0,21.7,2.264V10.71a1.2,1.2,0,1,1-2.4,0V2.264a11.2,11.2,0,0,0-2.843.685,1.2,1.2,0,0,1,.089.452V9.236a1.2,1.2,0,1,1-2.4,0V4.165A11.3,11.3,0,0,0,9.205,13.5v1.242H8.2a1.2,1.2,0,0,0,0,2.4Zm0,0" transform="translate(0 0)" fill="#3a7cec"/>
      <path id="Path_475" data-name="Path 475" d="M26.858,3.4a1.2,1.2,0,0,0-2.314-.452,11.262,11.262,0,0,1,2.314,1.216Zm0,0" transform="translate(0 0)" fill="#3a7cec"/>
      <path id="Path_476" data-name="Path 476" d="M15.343,2.2a1.2,1.2,0,0,0-1.2,1.2v.764a11.262,11.262,0,0,1,2.314-1.216A1.2,1.2,0,0,0,15.343,2.2Zm0,0" transform="translate(0 0)" fill="#3a7cec"/>
      <path id="Path_477" data-name="Path 477" d="M21.7,2.264V1.2a1.2,1.2,0,1,0-2.4,0V2.264a11.282,11.282,0,0,1,2.4,0Zm0,0" transform="translate(0 0)" fill="#3a7cec"/>
    </g>
  </g>
</svg>
