<svg xmlns="http://www.w3.org/2000/svg" xmlns:xlink="http://www.w3.org/1999/xlink" width="41" height="41" viewBox="0 0 41 41">
  <defs>
    <clipPath id="clip-path">
      <rect id="Rectangle_348" data-name="Rectangle 348" width="41" height="41" transform="translate(-0.052)" fill="#3a7cec" stroke="#707070" stroke-width="1"/>
    </clipPath>
  </defs>
  <g id="Mask_Group_43" data-name="Mask Group 43" transform="translate(0.052)" clip-path="url(#clip-path)">
    <g id="calendar" transform="translate(0.36)">
      <g id="Group_9310" data-name="Group 9310">
        <path id="Path_478" data-name="Path 478" d="M14.938,22.619a.93.93,0,0,0-.931-.93H10.76a.93.93,0,0,0-.93.93v3.247a.93.93,0,0,0,.93.931h3.247a.93.93,0,0,0,.931-.931V22.619Z" transform="translate(-0.454)" fill="#3a7cec"/>
        <path id="Path_479" data-name="Path 479" d="M23.054,22.619a.93.93,0,0,0-.93-.93H18.876a.93.93,0,0,0-.93.93v3.247a.93.93,0,0,0,.93.931h3.248a.93.93,0,0,0,.93-.931Z" transform="translate(-0.454)" fill="#3a7cec"/>
        <path id="Path_480" data-name="Path 480" d="M31.17,22.619a.93.93,0,0,0-.93-.93H26.993a.93.93,0,0,0-.931.93v3.247a.93.93,0,0,0,.931.931H30.24a.93.93,0,0,0,.93-.931Z" transform="translate(-0.454)" fill="#3a7cec"/>
        <path id="Path_481" data-name="Path 481" d="M14.938,30.736a.93.93,0,0,0-.931-.93H10.76a.93.93,0,0,0-.93.93v3.246a.93.93,0,0,0,.93.93h3.247a.93.93,0,0,0,.931-.93V30.736Z" transform="translate(-0.454)" fill="#3a7cec"/>
        <path id="Path_482" data-name="Path 482" d="M23.054,30.736a.93.93,0,0,0-.93-.93H18.876a.93.93,0,0,0-.93.93v3.246a.93.93,0,0,0,.93.93h3.248a.93.93,0,0,0,.93-.93Z" transform="translate(-0.454)" fill="#3a7cec"/>
        <path id="Path_483" data-name="Path 483" d="M31.17,30.736a.93.93,0,0,0-.93-.93H26.993a.93.93,0,0,0-.931.93v3.246a.93.93,0,0,0,.931.93H30.24a.93.93,0,0,0,.93-.93V30.736Z" transform="translate(-0.454)" fill="#3a7cec"/>
        <path id="Path_484" data-name="Path 484" d="M36.977,4.565v4.96a4.051,4.051,0,0,1-4.06,4.048H30.356a4.071,4.071,0,0,1-4.084-4.048V4.547H14.728V9.525a4.071,4.071,0,0,1-4.084,4.048H8.083a4.051,4.051,0,0,1-4.06-4.048V4.565A3.692,3.692,0,0,0,.454,8.237V37.3A3.693,3.693,0,0,0,4.129,41H36.87a3.7,3.7,0,0,0,3.675-3.7V8.237A3.692,3.692,0,0,0,36.977,4.565Zm-1.19,30.928A1.589,1.589,0,0,1,34.2,37.082H6.731a1.589,1.589,0,0,1-1.589-1.589V20.48a1.589,1.589,0,0,1,1.589-1.589H34.2a1.589,1.589,0,0,1,1.589,1.589V35.493Z" transform="translate(-0.454)" fill="#3a7cec"/>
        <path id="Path_485" data-name="Path 485" d="M8.074,10.914h2.533A1.392,1.392,0,0,0,12,9.523V1.392A1.392,1.392,0,0,0,10.607,0H8.074A1.392,1.392,0,0,0,6.681,1.392V9.523A1.392,1.392,0,0,0,8.074,10.914Z" transform="translate(-0.454)" fill="#3a7cec"/>
        <path id="Path_486" data-name="Path 486" d="M30.323,10.914h2.533a1.392,1.392,0,0,0,1.392-1.391V1.392A1.392,1.392,0,0,0,32.857,0H30.323a1.392,1.392,0,0,0-1.392,1.392V9.523A1.392,1.392,0,0,0,30.323,10.914Z" transform="translate(-0.454)" fill="#3a7cec"/>
      </g>
    </g>
  </g>
</svg>
