<svg xmlns="http://www.w3.org/2000/svg" width="20.927" height="20.971" viewBox="0 0 20.927 20.971">
  <g id="phone_7_" data-name="phone (7)" transform="translate(-0.539)">
    <g id="Group_8552" data-name="Group 8552" transform="translate(0.539 0)">
      <path id="Path_256" data-name="Path 256" d="M20.917,15.39l-2.927-2.927a1.946,1.946,0,0,0-3.24.732,1.992,1.992,0,0,1-2.3,1.254A9.024,9.024,0,0,1,7.016,9.015a1.894,1.894,0,0,1,1.254-2.3A1.946,1.946,0,0,0,9,3.475L6.075.549a2.087,2.087,0,0,0-2.822,0L1.268,2.535c-1.986,2.09.209,7.63,5.121,12.542S16.841,22.289,18.931,20.2l1.986-1.986A2.087,2.087,0,0,0,20.917,15.39Z" transform="translate(-0.539 0)" fill="#fccc00"/>
    </g>
  </g>
</svg>
