<svg id="_24-hours_1_" data-name="24-hours (1)" xmlns="http://www.w3.org/2000/svg" width="70.773" height="70.773" viewBox="0 0 70.773 70.773">
  <g id="Group_9493" data-name="Group 9493">
    <g id="Group_9492" data-name="Group 9492">
      <path id="Path_648" data-name="Path 648" d="M342.414,295.6h-3.539V273.185a1.18,1.18,0,0,0-2.146-.676L320.216,296.1a1.18,1.18,0,0,0,.966,1.855h15.334v3.539a1.18,1.18,0,0,0,2.359,0v-3.539h3.539a1.18,1.18,0,0,0,0-2.359Zm-5.9,0H323.447l13.069-18.67Z" transform="translate(-272.821 -231.901)" fill="#122035"/>
      <path id="Path_649" data-name="Path 649" d="M225.693,300.3H211.729l12.983-15.288a1.264,1.264,0,0,0,.083-.11,8.2,8.2,0,0,0-1.852-11.14A9.436,9.436,0,0,0,208,281.425a1.18,1.18,0,0,0,2.359,0,7.077,7.077,0,0,1,11.206-5.749,5.823,5.823,0,0,1,1.3,7.862l-14.582,17.177a1.18,1.18,0,0,0,.9,1.943h16.514a1.18,1.18,0,0,0,0-2.359Z" transform="translate(-177.332 -231.884)" fill="#122035"/>
      <path id="Path_650" data-name="Path 650" d="M31.874,62.538a1.18,1.18,0,0,0-1.134-1.223h0A29.453,29.453,0,0,1,2.4,33.027H7.077a1.18,1.18,0,1,0,0-2.359H2.4A29.418,29.418,0,0,1,30.668,2.4V5.9a1.18,1.18,0,1,0,2.359,0V2.4A29.439,29.439,0,0,1,61.28,30.121l-4.6-4.6a1.18,1.18,0,0,0-1.668,1.668L61.6,33.773a1.159,1.159,0,0,0,.465.339,1.352,1.352,0,0,0,.14.034,1.167,1.167,0,0,0,.25.06h.067a1.136,1.136,0,0,0,.264-.052,1.109,1.109,0,0,0,.144-.027,1.162,1.162,0,0,0,.426-.267l6.674-6.671a1.18,1.18,0,0,0-1.668-1.668l-4.715,4.711A31.8,31.8,0,0,0,31.931.017C31.9.015,31.877,0,31.848,0s-.054.015-.084.017A31.791,31.791,0,0,0,.017,31.764c0,.029-.017.054-.017.084s.015.054.017.084A31.818,31.818,0,0,0,30.652,63.673H30.7A1.179,1.179,0,0,0,31.874,62.538Z" fill="#122035"/>
      <path id="Path_651" data-name="Path 651" d="M176.883,106.523a1.18,1.18,0,0,0-1.668,0L162.54,119.2a3.694,3.694,0,0,0-3.009,0l-6-6a1.18,1.18,0,0,0-1.668,1.668l5.99,5.99a3.532,3.532,0,1,0,6.368,0l12.664-12.664A1.18,1.18,0,0,0,176.883,106.523ZM161.87,123.2h0a1.207,1.207,0,0,1-1.668,0,1.18,1.18,0,1,1,1.668,0Z" transform="translate(-129.188 -90.523)" fill="#122035"/>
    </g>
  </g>
</svg>
