<svg xmlns="http://www.w3.org/2000/svg" width="35.32" height="34.183" viewBox="0 0 35.32 34.183"><defs><style>.a{opacity:0.8;}.b{fill:#122035;}</style></defs><g class="a" transform="translate(-3 -3)"><path class="b" d="M60.627,38.066l-1.1-.438-2.209,5.524h1.269Z" transform="translate(-22.307 -14.219)"/><path class="b" d="M45,13h1.179v3.536H45Z" transform="translate(-17.247 -4.106)"/><path class="b" d="M49,15h1.179v2.357H49Z" transform="translate(-18.889 -4.928)"/><path class="b" d="M41,15h1.179v2.357H41Z" transform="translate(-15.604 -4.928)"/><path class="b" d="M27,22.357A1.179,1.179,0,0,0,27,20Z" transform="translate(-9.855 -6.981)"/><path class="b" d="M21.276,34.3l-1.038,1.558,1.038,1.3Z" transform="translate(-7.078 -12.854)"/><path class="b" d="M28.179,17H27v.589a2.333,2.333,0,0,1,1.179.328Z" transform="translate(-9.855 -5.749)"/><path class="b" d="M21.144,14.179V13H7v1.179Z" transform="translate(-1.642 -4.106)"/><path class="b" d="M16.467,29,16.1,30.092l1.707,2.561,1.707-2.561L19.154,29Z" transform="translate(-5.381 -10.676)"/><path class="b" d="M40.894,33H35v8.251h5.894Zm-3.536,7.072H36.179V34.179h1.179Zm2.357,0H38.536V34.179h1.179Z" transform="translate(-13.14 -12.319)"/><path class="b" d="M47,42.894h4.715V37H47Zm1.179-4.715h2.357v1.179H48.179Zm0,2.357h2.357v1.179H48.179Z" transform="translate(-18.068 -13.962)"/><path class="b" d="M43.715,29.251h3.536V21H39v5.894h4.715Zm1.179-7.072h1.179v1.179H44.894Zm0,2.357h1.179v1.179H44.894Zm0,2.357h1.179v1.179H44.894Zm-2.357-4.715h1.179v1.179H42.536Zm-1.179,3.536H40.179V24.536h1.179Zm0-2.357H40.179V22.179h1.179Zm1.179,2.357V24.536h1.179v1.179Z" transform="translate(-14.783 -7.391)"/><path class="b" d="M16,37.159l1.038-1.3L16,34.3Z" transform="translate(-5.338 -12.854)"/><path class="b" d="M22,3.458V7.9h4.005A5.843,5.843,0,0,0,22,3.458Z" transform="translate(-7.802 -0.188)"/><path class="b" d="M19.179,3.029c-.194-.019-.39-.029-.589-.029s-.4.011-.589.029V7.715h1.179Z" transform="translate(-6.159 0)"/><path class="b" d="M13.209,3.458A5.843,5.843,0,0,0,9.2,7.9h4.005Z" transform="translate(-2.548 -0.188)"/><path class="b" d="M22.126,54.768a.59.59,0,0,0-.589-.589H20.357v-.589A.59.59,0,0,0,19.768,53h-.69a.587.587,0,0,0-.417.173L18,53.833v1.524h3.536A.59.59,0,0,0,22.126,54.768Z" transform="translate(-6.159 -20.532)"/><path class="b" d="M25.661,40.975h2.182L25.81,35.89l1.094-.438,2.21,5.523h.19V36.659A9.291,9.291,0,0,0,24,32.328V44.511a1.768,1.768,0,1,1,0,3.536v1.179h2.947V44.093a4.81,4.81,0,0,1-1.17-2.431Z" transform="translate(-8.623 -12.043)"/><path class="b" d="M31,58.09h2.357V54.551A4.812,4.812,0,0,1,31,53.913Z" transform="translate(-11.498 -20.907)"/><path class="b" d="M32.707,51.357h3.007a1.766,1.766,0,0,1,1.66-1.179h2.357a1.766,1.766,0,0,1,1.66,1.179H44.4A3.63,3.63,0,0,0,47.808,49H29.3A3.629,3.629,0,0,0,32.707,51.357Z" transform="translate(-10.799 -18.889)"/><path class="b" d="M16,59h3.536v1.179H16Z" transform="translate(-5.338 -22.995)"/><path class="b" d="M44.947,53H42.589a.59.59,0,0,0-.589.589,1.768,1.768,0,1,0,3.536,0A.59.59,0,0,0,44.947,53Z" transform="translate(-16.015 -20.532)"/><path class="b" d="M20.072,21.126V17H13v4.126a1.77,1.77,0,0,0,1.768,1.768H18.3A1.77,1.77,0,0,0,20.072,21.126Z" transform="translate(-4.106 -5.749)"/><path class="b" d="M10.179,17H9v.917a2.333,2.333,0,0,1,1.179-.328Z" transform="translate(-2.464 -5.749)"/><path class="b" d="M16,46.941l.4.089.6-.6a1.757,1.757,0,0,1,1.251-.517h.69a1.763,1.763,0,0,1,.589.1v-5.2L17.768,38.6,16,40.81Z" transform="translate(-5.338 -14.619)"/><path class="b" d="M9,58.574V60h2.947V58.825H10.768A6.463,6.463,0,0,1,9,58.574Z" transform="translate(-2.464 -22.82)"/><path class="b" d="M10.179,22.357V20a1.179,1.179,0,0,0,0,2.357Z" transform="translate(-2.464 -6.981)"/><path class="b" d="M10.662,46.862v-1.3l-2.074-.461a4.1,4.1,0,0,1-3.23-4.027V38.611H6.536v2.468a2.929,2.929,0,0,0,2.307,2.877l.639.142V32.312A9.246,9.246,0,0,0,3,41.17v.388a5.311,5.311,0,0,0,5.3,5.3Z" transform="translate(0 -12.036)"/></g></svg>