<svg xmlns="http://www.w3.org/2000/svg" width="36.55" height="34" viewBox="0 0 36.55 34"><g transform="translate(0 -16)"><g transform="translate(0 23.832)"><path d="M2.611,112A2.618,2.618,0,0,0,0,114.611V135.5a2.618,2.618,0,0,0,2.611,2.611H5.221V112Z" transform="translate(0 -112)" fill="#122035"/></g><g transform="translate(8.075 23.65)"><g transform="translate(0 0)"><rect width="20" height="26" transform="translate(0.2 0.35)" fill="#122035"/></g></g><g transform="translate(31.328 23.832)"><path d="M386.611,112H384v26.107h2.611a2.618,2.618,0,0,0,2.611-2.611V114.611A2.618,2.618,0,0,0,386.611,112Z" transform="translate(-384 -112)" fill="#122035"/></g><g transform="translate(11.748 16)"><g transform="translate(0 0)"><path d="M155.748,16H145.305A1.308,1.308,0,0,0,144,17.305v3.916h2.611V18.611h7.832v2.611h2.611V17.305A1.308,1.308,0,0,0,155.748,16Z" transform="translate(-144 -16)" fill="#122035"/></g></g></g></svg>