<svg xmlns="http://www.w3.org/2000/svg" xmlns:xlink="http://www.w3.org/1999/xlink" width="43" height="43" viewBox="0 0 43 43"><defs><clipPath id="a"><rect width="43" height="43" fill="#fccc00" stroke="#707070" stroke-width="1"/></clipPath></defs><g clip-path="url(#a)"><path d="M37.946,12.66v5.365l3.407-2.531Z" fill="#fccc00"/><path d="M23.571.752A3.248,3.248,0,0,0,19.429.741L18.055,1.909h6.912Z" fill="#fccc00"/><path d="M24.729,30.55a5.3,5.3,0,0,1-3.212,1.06,5.4,5.4,0,0,1-3.223-1.06L1.063,17.69V39.744A3.236,3.236,0,0,0,4.275,43h34.45a3.236,3.236,0,0,0,3.212-3.256V17.69Z" fill="#fccc00"/><path d="M1.658,15.494l3.3,2.455V12.758Z" fill="#fccc00"/><path d="M7.12,4.072V19.561L19.558,28.82a3.328,3.328,0,0,0,3.9,0l12.32-9.183V4.072Zm7.68,8.653H20.64a1.082,1.082,0,0,1,0,2.163H14.8a1.082,1.082,0,1,1,0-2.163ZM28.211,20.3H14.8a1.082,1.082,0,0,1,0-2.163H28.211a1.082,1.082,0,1,1,0,2.163Z" fill="#fccc00"/></g></svg>