<svg xmlns="http://www.w3.org/2000/svg" xmlns:xlink="http://www.w3.org/1999/xlink" width="43" height="43" viewBox="0 0 43 43"><defs><clipPath id="a"><rect width="43" height="43" fill="#fccc00" stroke="#707070" stroke-width="1"/></clipPath></defs><g clip-path="url(#a)"><path d="M28.807,8.147h7.325C31.458,3.474,29.59,1.595,28.807.822Z" fill="#fccc00"/><path d="M27.547,10.666a1.26,1.26,0,0,1-1.26-1.26V0H8.651a2.522,2.522,0,0,0-2.52,2.52V40.48A2.522,2.522,0,0,0,8.651,43h25.7a2.522,2.522,0,0,0,2.52-2.52c0-.315,0-24.02,0-29.814ZM11.735,14.86a1.26,1.26,0,0,1,1.744-.365,2.233,2.233,0,0,0,1.653.427,1.2,1.2,0,0,0,1.2-1.017.841.841,0,0,0-.631-1,10.427,10.427,0,0,1-2.878-1.39A3.156,3.156,0,0,1,13.881,6.23V6.047a1.26,1.26,0,1,1,2.519,0v.07a3.326,3.326,0,0,1,1.464.841,1.26,1.26,0,0,1-1.8,1.767,1.271,1.271,0,0,0-1.3-.139.7.7,0,0,0-.445.553.492.492,0,0,0,.049.389,8.661,8.661,0,0,0,2.163,1c3.32,1.174,2.916,5.59-.136,6.693v.263a1.26,1.26,0,1,1-2.519,0v-.121A4.565,4.565,0,0,1,12.1,16.6a1.26,1.26,0,0,1-.365-1.744Zm18.5,22.681h-4.7a1.26,1.26,0,1,1,0-2.52h4.7a1.26,1.26,0,0,1,0,2.52Zm0-8.062H12.766a1.26,1.26,0,0,1,0-2.52H30.234a1.26,1.26,0,0,1,0,2.52Zm0-5.375H12.766a1.26,1.26,0,0,1,0-2.52H30.234a1.26,1.26,0,1,1,0,2.52Z" fill="#fccc00"/></g></svg>