<svg xmlns="http://www.w3.org/2000/svg" width="17.575" height="23" viewBox="0 0 17.575 23"><ellipse cx="2.929" cy="2.875" rx="2.929" ry="2.875" transform="translate(9.276 11.5)" fill="#fccc00"/><path d="M18.055,19h-5.37A2.663,2.663,0,0,0,10,21.635v1.438a.726.726,0,0,0,.732.719h9.276a.726.726,0,0,0,.732-.719V21.635A2.663,2.663,0,0,0,18.055,19Z" transform="translate(-3.165 -0.792)" fill="#fccc00"/><path d="M13.974,4.792,16.6,1.131a.735.735,0,0,0,.059-.747A.754.754,0,0,0,16.005,0H5.87A2.182,2.182,0,0,1,6,.719V9.583H16.005a.754.754,0,0,0,.654-.383.735.735,0,0,0-.059-.748Z" transform="translate(-3.068 0)" fill="#fccc00"/><path d="M3.732,23A.726.726,0,0,1,3,22.281V.719a.732.732,0,0,1,1.465,0V22.281A.726.726,0,0,1,3.732,23Z" transform="translate(-3)" fill="#fccc00"/></svg>