<?xml version="1.0"?>
<svg xmlns="http://www.w3.org/2000/svg" xmlns:xlink="http://www.w3.org/1999/xlink" xmlns:svgjs="http://svgjs.com/svgjs" version="1.1" width="512" height="512" x="0" y="0" viewBox="0 0 512 512" style="enable-background:new 0 0 512 512" xml:space="preserve" class=""><g><path xmlns="http://www.w3.org/2000/svg" d="m0 107.081a16 16 0 0 1 16-16h480a16 16 0 0 1 0 32h-480a16 16 0 0 1 -16-16zm496 132.919h-480a16 16 0 0 0 0 32h480a16 16 0 0 0 0-32zm-240 148.919h-240a16 16 0 0 0 0 32h240a16 16 0 0 0 0-32z" fill="#ffffff" data-original="#000000" style="" class=""/></g></svg>
