<svg xmlns="http://www.w3.org/2000/svg" xmlns:xlink="http://www.w3.org/1999/xlink" width="41" height="41" viewBox="0 0 41 41"><defs><style>.a,.c{fill:#122035;}.a{stroke:#707070;}.b{opacity:0.8;clip-path:url(#a);}</style><clipPath id="a"><rect class="a" width="41" height="41" transform="translate(-0.052)"/></clipPath></defs><g class="b" transform="translate(0.052)"><path class="c" d="M15.615,29.469A13.873,13.873,0,0,1,28.107,15.682V1.2a1.2,1.2,0,0,0-1.2-1.2H1.2A1.2,1.2,0,0,0,0,1.2V37.156a1.2,1.2,0,0,0,1.2,1.2H18.852A13.789,13.789,0,0,1,15.615,29.469ZM5.205,12.813V6.406a1.2,1.2,0,0,1,1.2-1.2H21.781a1.2,1.2,0,0,1,1.2,1.2v6.406a1.2,1.2,0,0,1-1.2,1.2H6.406A1.2,1.2,0,0,1,5.205,12.813ZM8.328,31.951H7.047a1.2,1.2,0,0,1,0-2.4H8.328a1.2,1.2,0,0,1,0,2.4Zm0-6.406H7.047a1.2,1.2,0,0,1,0-2.4H8.328a1.2,1.2,0,0,1,0,2.4Zm0-6.406H7.047a1.2,1.2,0,0,1,0-2.4H8.328a1.2,1.2,0,0,1,0,2.4Zm6.406,0H13.453a1.2,1.2,0,0,1,0-2.4h1.281a1.2,1.2,0,0,1,0,2.4Z"/><path class="c" d="M29.129,18.023A11.492,11.492,0,0,0,29.469,41a11.492,11.492,0,1,0-.34-22.977Zm1.542,16.646v.251a1.2,1.2,0,0,1-2.4,0V34.8a4.353,4.353,0,0,1-1.7-.722,1.2,1.2,0,1,1,1.315-2.01,2.128,2.128,0,0,0,1.576.407,1.141,1.141,0,0,0,1.141-.969.8.8,0,0,0-.6-.958,9.942,9.942,0,0,1-2.744-1.325,3.009,3.009,0,0,1,1.013-5.036v-.174a1.2,1.2,0,0,1,2.4,0v.067a3.173,3.173,0,0,1,1.4.8,1.2,1.2,0,0,1-1.712,1.685,1.211,1.211,0,0,0-1.238-.133.667.667,0,0,0-.424.527.469.469,0,0,0,.046.371,8.261,8.261,0,0,0,2.062.951,3.374,3.374,0,0,1-.13,6.382Z"/><path class="c" d="M7.607,7.607H20.58v4H7.607Z"/></g></svg>