<svg xmlns="http://www.w3.org/2000/svg" xmlns:xlink="http://www.w3.org/1999/xlink" width="57" height="57" viewBox="0 0 57 57"><defs><clipPath id="a"><rect width="57" height="57" fill="#15b533" stroke="#707070" stroke-width="1"/></clipPath></defs><g clip-path="url(#a)"><g transform="translate(3.902 0)"><path d="M47.766,50.868H45.553V29.9a.835.835,0,0,0-1.67,0V50.868H38.27V18.011h5.614v8.022a.835.835,0,1,0,1.67,0V17.551a1.212,1.212,0,0,0-1.21-1.21H37.81a1.212,1.212,0,0,0-1.21,1.21V50.868H31.713V25.062a1.212,1.212,0,0,0-1.21-1.21H23.97a1.212,1.212,0,0,0-1.21,1.21V50.868H17.873V33.8a1.212,1.212,0,0,0-1.21-1.21H10.13a1.212,1.212,0,0,0-1.21,1.21V50.868H6.707a2.807,2.807,0,0,0-2.8,2.8V55a2.007,2.007,0,0,0,2,2H17.991a.835.835,0,0,0,0-1.67H5.907A.335.335,0,0,1,5.573,55V53.672a1.135,1.135,0,0,1,1.134-1.134h41.06A1.135,1.135,0,0,1,48.9,53.672V55a.335.335,0,0,1-.335.335H21.85a.835.835,0,0,0,0,1.67H48.566a2.007,2.007,0,0,0,2-2V53.672a2.807,2.807,0,0,0-2.8-2.8Zm-37.177,0V34.257H16.2V50.868Zm13.84,0V25.521h5.614V50.868Z" transform="translate(-3.902 0)" fill="#15b533"/><path d="M36.559,9.109,36,12.381a1.475,1.475,0,0,0,2.141,1.555l2.938-1.544,2.938,1.544a1.475,1.475,0,0,0,2.141-1.555l-.561-3.271,2.377-2.317a1.475,1.475,0,0,0-.818-2.516L43.868,3.8,42.4.822A1.466,1.466,0,0,0,41.077,0h0a1.466,1.466,0,0,0-1.323.822L38.285,3.8,35,4.276a1.475,1.475,0,0,0-.818,2.516Zm2.067-3.673a1.475,1.475,0,0,0,1.111-.807l1.34-2.714,1.34,2.714a1.475,1.475,0,0,0,1.111.807l3,.435L44.355,7.985a1.475,1.475,0,0,0-.424,1.306l.512,2.983-2.679-1.409a1.475,1.475,0,0,0-1.373,0l-2.679,1.409.512-2.983A1.475,1.475,0,0,0,37.8,7.985L35.63,5.872Z" transform="translate(-3.902 0)" fill="#15b533"/><path d="M29.89,7.888h1.4a.835.835,0,0,0,0-1.67h-1.4a.835.835,0,0,0,0,1.67Z" transform="translate(-3.902 0)" fill="#15b533"/><path d="M32.043,10.069l-1.211.7a.835.835,0,1,0,.835,1.446l1.211-.7a.835.835,0,0,0-.835-1.446Z" transform="translate(-3.902 0)" fill="#15b533"/><path d="M30.832,3.212l1.211.7a.835.835,0,0,0,.835-1.446l-1.211-.7a.835.835,0,0,0-.835,1.446Z" transform="translate(-3.902 0)" fill="#15b533"/><path d="M52.263,6.218h-1.4a.835.835,0,0,0,0,1.67h1.4a.835.835,0,0,0,0-1.67Z" transform="translate(-3.902 0)" fill="#15b533"/><path d="M51.321,10.768l-1.211-.7a.835.835,0,0,0-.835,1.446l1.211.7a.835.835,0,0,0,.835-1.446Z" transform="translate(-3.902 0)" fill="#15b533"/><path d="M49.693,4.023a.831.831,0,0,0,.417-.112l1.211-.7a.835.835,0,0,0-.835-1.446l-1.211.7a.835.835,0,0,0,.418,1.558Z" transform="translate(-3.902 0)" fill="#15b533"/></g></g></svg>