<svg xmlns="http://www.w3.org/2000/svg" xmlns:xlink="http://www.w3.org/1999/xlink" width="43" height="43" viewBox="0 0 43 43"><defs><clipPath id="a"><rect width="43" height="43" fill="#15b533" stroke="#707070" stroke-width="1"/></clipPath></defs><g clip-path="url(#a)"><path d="M9.409,1.338a1.338,1.338,0,1,0-2.676,0V2.855H9.409Z" fill="#15b533"/><path d="M20.121,1.338a1.338,1.338,0,1,0-2.676,0V2.855h2.676Z" fill="#15b533"/><path d="M30.817,1.338a1.338,1.338,0,0,0-2.676,0V2.855h2.676Z" fill="#15b533"/><path d="M36.176,4.193a1.338,1.338,0,0,0-1.338-1.338H30.817V5.7a1.338,1.338,0,0,1-2.676,0V2.855h-8.02V5.7a1.338,1.338,0,1,1-2.676,0V2.855H9.409V5.7a1.338,1.338,0,1,1-2.676,0V2.855H2.722A1.338,1.338,0,0,0,1.384,4.193v7.494H36.176Z" fill="#15b533"/><path d="M20.863,37.559l-3.428,0a1.338,1.338,0,0,1,0-2.676H20.27a12.187,12.187,0,0,1,.02-2.676H17.436a1.338,1.338,0,1,1,0-2.676h3.491a12.055,12.055,0,0,1,15.25-7.282V14.363H1.384v27.21a1.339,1.339,0,0,0,1.338,1.338H24.578A12.084,12.084,0,0,1,20.863,37.559Zm4.6-18.735H28.15a1.338,1.338,0,0,1,0,2.676H25.465a1.338,1.338,0,1,1,0-2.676Zm-8.029,0h2.685a1.338,1.338,0,1,1,0,2.676H17.436a1.338,1.338,0,1,1,0-2.676Zm0,5.353h2.685a1.338,1.338,0,1,1,0,2.676H17.436a1.338,1.338,0,1,1,0-2.676ZM12.092,37.553h0l-2.685,0a1.338,1.338,0,0,1,0-2.676h0l2.685,0a1.338,1.338,0,0,1,0,2.676Zm0-5.347H9.407a1.338,1.338,0,1,1,0-2.676h2.685a1.338,1.338,0,1,1,0,2.676Zm0-5.353H9.407a1.338,1.338,0,1,1,0-2.676h2.685a1.338,1.338,0,1,1,0,2.676Z" fill="#15b533"/><path d="M32.249,24.266a9.367,9.367,0,1,0,9.367,9.367A9.378,9.378,0,0,0,32.249,24.266Zm2.23,10.17a1.338,1.338,0,0,1-1.338,1.338h-4.1a1.338,1.338,0,1,1,0-2.676H31.8V29.083a1.338,1.338,0,1,1,2.676,0Z" fill="#15b533"/></g></svg>