<svg xmlns="http://www.w3.org/2000/svg" width="41.331" height="57.864" viewBox="0 0 41.331 57.864"><path d="M58.36,42.925,55.867,42.4l-.009,0-5.979-1.256a6.571,6.571,0,0,0,.064-.868V37.547A12.407,12.407,0,0,0,55.8,27.056V24.834h1.366a.878.878,0,0,0,.615-.25.846.846,0,0,0,.255-.6V21.05a.846.846,0,0,0-.255-.6.878.878,0,0,0-.615-.25h-.628A13.216,13.216,0,0,0,46.213,7.545V5.6a.846.846,0,0,0-.255-.6.878.878,0,0,0-.615-.25H40.868A.862.862,0,0,0,40,5.6v1.94a13.216,13.216,0,0,0-10.325,12.65h-.628a.878.878,0,0,0-.615.25.846.846,0,0,0-.255.6v2.93a.846.846,0,0,0,.255.6.878.878,0,0,0,.615.25h1.366v2.222a12.407,12.407,0,0,0,5.858,10.492v2.727a6.571,6.571,0,0,0,.064.868L30.353,42.4h-.006l-2.494.524a6.776,6.776,0,0,0-5.413,6.566V61.759a.862.862,0,0,0,.87.855H62.9a.862.862,0,0,0,.87-.855V49.488A6.776,6.776,0,0,0,58.36,42.925ZM54.8,20.195H50.689V15.19a.87.87,0,0,0-1.74,0v5.005H46.213V9.295a11.5,11.5,0,0,1,8.584,10.9ZM41.738,6.459h2.735V20.195H41.738ZM40,9.3v10.9H37.263V15.19a.87.87,0,0,0-1.74,0v5.005H31.413A11.5,11.5,0,0,1,40,9.3ZM29.915,21.9H56.3v1.221H29.915Zm2.238,5.152V24.834H54.06v2.222a10.956,10.956,0,0,1-21.909,0ZM43.106,39.517a12.825,12.825,0,0,0,5.1-1.05v1.807a5.1,5.1,0,0,1-10.194,0V38.467A12.825,12.825,0,0,0,43.106,39.517ZM24.18,49.488A5.052,5.052,0,0,1,28.217,44.6l1.448-.3V60.9H24.18Zm7.225-5.563,5.37-1.129a6.832,6.832,0,0,0,5.462,4.131V60.9H31.405ZM43.976,60.9V46.928A6.831,6.831,0,0,0,49.437,42.8l5.37,1.129V60.9Zm18.055,0H56.546V44.292L58,44.6a5.052,5.052,0,0,1,4.036,4.892Z" transform="translate(-22.44 -4.75)" fill="#15b533"/></svg>