<svg xmlns="http://www.w3.org/2000/svg" xmlns:xlink="http://www.w3.org/1999/xlink" width="32" height="32" viewBox="0 0 32 32"><defs><clipPath id="a"><rect width="32" height="32" fill="#fff" stroke="#707070" stroke-width="1"/></clipPath></defs><g clip-path="url(#a)"><g transform="translate(4.623 -0.181)"><path d="M19.986,0A11.386,11.386,0,0,0,8.609,11.377a11.219,11.219,0,0,0,1.707,5.973l8.9,14.563a.9.9,0,0,0,.645.436.944.944,0,0,0,.967-.455l8.924-14.7a11.22,11.22,0,0,0,1.612-5.821A11.386,11.386,0,0,0,19.986,0Zm0,17.065a5.688,5.688,0,1,1,5.688-5.688A5.681,5.681,0,0,1,19.986,17.065Z" transform="translate(-8.609)" fill="#8891a0"/><path d="M29,0V5.688a5.688,5.688,0,0,1,0,11.377V32.36a.939.939,0,0,0,.841-.466l8.924-14.7a11.22,11.22,0,0,0,1.612-5.821A11.386,11.386,0,0,0,29,0Z" transform="translate(-17.623)" fill="#8891a0"/></g></g></svg>